<?xml version="1.0" standalone="no"?>
<svg xmlns="http://www.w3.org/2000/svg" width="2000" height="2000" viewBox="0 0 2000 2000"><defs><clipPath id="clip-path-dot-color"><path d="M 101 659v 62h 31a 31 31, 0, 0, 0, 0 -62" transform="rotate(-90,132,690)"/><path d="M 101 721v 62h 31a 31 31, 0, 0, 0, 0 -62" transform="rotate(90,132,752)"/><path d="M 101 845v 62h 62v -31a 31 31, 0, 0, 0, -31 -31" transform="rotate(-90,132,876)"/><path d="M 101 907v 62h 62v -31a 31 31, 0, 0, 0, -31 -31" transform="rotate(180,132,938)"/><circle cx="132" cy="1062" r="31" transform="rotate(0,132,1062)"/><path d="M 101 1217v 62h 31a 31 31, 0, 0, 0, 0 -62" transform="rotate(-90,132,1248)"/><path d="M 101 1279v 62h 31a 31 31, 0, 0, 0, 0 -62" transform="rotate(90,132,1310)"/><path d="M 163 845v 62h 62v -31a 31 31, 0, 0, 0, -31 -31" transform="rotate(0,194,876)"/><rect x="163" y="907" width="62" height="62" transform="rotate(0,194,938)"/><path d="M 163 1093v 62h 31a 31 31, 0, 0, 0, 0 -62" transform="rotate(-90,194,1124)"/><path d="M 163 1155v 62h 62v -31a 31 31, 0, 0, 0, -31 -31" transform="rotate(180,194,1186)"/><path d="M 163 1341v 62h 31a 31 31, 0, 0, 0, 0 -62" transform="rotate(180,194,1372)"/><circle cx="256" cy="628" r="31" transform="rotate(0,256,628)"/><path d="M 225 907v 62h 62v -31a 31 31, 0, 0, 0, -31 -31" transform="rotate(0,256,938)"/><rect x="225" y="969" width="62" height="62" transform="rotate(0,256,1000)"/><path d="M 225 1031v 62h 31a 31 31, 0, 0, 0, 0 -62" transform="rotate(90,256,1062)"/><path d="M 225 1155v 62h 31a 31 31, 0, 0, 0, 0 -62" transform="rotate(0,256,1186)"/><path d="M 225 1279v 62h 62v -31a 31 31, 0, 0, 0, -31 -31" transform="rotate(-90,256,1310)"/><path d="M 225 1341v 62h 62v -31a 31 31, 0, 0, 0, -31 -31" transform="rotate(90,256,1372)"/><path d="M 287 783v 62h 62v -31a 31 31, 0, 0, 0, -31 -31" transform="rotate(-90,318,814)"/><path d="M 287 845v 62h 31a 31 31, 0, 0, 0, 0 -62" transform="rotate(90,318,876)"/><rect x="287" y="969" width="62" height="62" transform="rotate(0,318,1000)"/><circle cx="318" cy="1124" r="31" transform="rotate(0,318,1124)"/><path d="M 287 1217v 62h 31a 31 31, 0, 0, 0, 0 -62" transform="rotate(-90,318,1248)"/><path d="M 287 1279v 62h 62v -31a 31 31, 0, 0, 0, -31 -31" transform="rotate(90,318,1310)"/><path d="M 349 597v 62h 62v -31a 31 31, 0, 0, 0, -31 -31" transform="rotate(-90,380,628)"/><rect x="349" y="659" width="62" height="62" transform="rotate(0,380,690)"/><rect x="349" y="721" width="62" height="62" transform="rotate(0,380,752)"/><rect x="349" y="783" width="62" height="62" transform="rotate(0,380,814)"/><path d="M 349 907v 62h 62v -31a 31 31, 0, 0, 0, -31 -31" transform="rotate(-90,380,938)"/><rect x="349" y="969" width="62" height="62" transform="rotate(0,380,1000)"/><rect x="411" y="597" width="62" height="62" transform="rotate(0,442,628)"/><path d="M 411 783v 62h 62v -31a 31 31, 0, 0, 0, -31 -31" transform="rotate(0,442,814)"/><rect x="411" y="845" width="62" height="62" transform="rotate(0,442,876)"/><rect x="411" y="907" width="62" height="62" transform="rotate(0,442,938)"/><rect x="411" y="969" width="62" height="62" transform="rotate(0,442,1000)"/><path d="M 411 1217v 62h 62v -31a 31 31, 0, 0, 0, -31 -31" transform="rotate(-90,442,1248)"/><rect x="411" y="1279" width="62" height="62" transform="rotate(0,442,1310)"/><path d="M 411 1341v 62h 62v -31a 31 31, 0, 0, 0, -31 -31" transform="rotate(180,442,1372)"/><path d="M 473 597v 62h 31a 31 31, 0, 0, 0, 0 -62" transform="rotate(0,504,628)"/><path d="M 473 721v 62h 31a 31 31, 0, 0, 0, 0 -62" transform="rotate(180,504,752)"/><path d="M 473 845v 62h 31a 31 31, 0, 0, 0, 0 -62" transform="rotate(0,504,876)"/><rect x="473" y="969" width="62" height="62" transform="rotate(0,504,1000)"/><circle cx="504" cy="1124" r="31" transform="rotate(0,504,1124)"/><rect x="473" y="1217" width="62" height="62" transform="rotate(0,504,1248)"/><path d="M 473 1341v 62h 31a 31 31, 0, 0, 0, 0 -62" transform="rotate(0,504,1372)"/><path d="M 535 721v 62h 62v -31a 31 31, 0, 0, 0, -31 -31" transform="rotate(0,566,752)"/><path d="M 535 783v 62h 62v -31a 31 31, 0, 0, 0, -31 -31" transform="rotate(180,566,814)"/><path d="M 535 907v 62h 31a 31 31, 0, 0, 0, 0 -62" transform="rotate(-90,566,938)"/><rect x="535" y="969" width="62" height="62" transform="rotate(0,566,1000)"/><path d="M 535 1155v 62h 31a 31 31, 0, 0, 0, 0 -62" transform="rotate(-90,566,1186)"/><rect x="535" y="1217" width="62" height="62" transform="rotate(0,566,1248)"/><path d="M 535 1279v 62h 62v -31a 31 31, 0, 0, 0, -31 -31" transform="rotate(180,566,1310)"/><path d="M 597 163v 62h 31a 31 31, 0, 0, 0, 0 -62" transform="rotate(180,628,194)"/><path d="M 597 349v 62h 31a 31 31, 0, 0, 0, 0 -62" transform="rotate(180,628,380)"/><circle cx="628" cy="504" r="31" transform="rotate(0,628,504)"/><path d="M 597 597v 62h 62v -31a 31 31, 0, 0, 0, -31 -31" transform="rotate(-90,628,628)"/><path d="M 597 659v 62h 62v -31a 31 31, 0, 0, 0, -31 -31" transform="rotate(180,628,690)"/><path d="M 597 783v 62h 62v -31a 31 31, 0, 0, 0, -31 -31" transform="rotate(0,628,814)"/><path d="M 597 845v 62h 31a 31 31, 0, 0, 0, 0 -62" transform="rotate(90,628,876)"/><rect x="597" y="969" width="62" height="62" transform="rotate(0,628,1000)"/><path d="M 597 1031v 62h 31a 31 31, 0, 0, 0, 0 -62" transform="rotate(90,628,1062)"/><path d="M 597 1217v 62h 62v -31a 31 31, 0, 0, 0, -31 -31" transform="rotate(0,628,1248)"/><rect x="597" y="1279" width="62" height="62" transform="rotate(0,628,1310)"/><rect x="597" y="1341" width="62" height="62" transform="rotate(0,628,1372)"/><path d="M 597 1403v 62h 62v -31a 31 31, 0, 0, 0, -31 -31" transform="rotate(180,628,1434)"/><path d="M 597 1527v 62h 31a 31 31, 0, 0, 0, 0 -62" transform="rotate(-90,628,1558)"/><path d="M 597 1589v 62h 62v -31a 31 31, 0, 0, 0, -31 -31" transform="rotate(180,628,1620)"/><path d="M 597 1713v 62h 31a 31 31, 0, 0, 0, 0 -62" transform="rotate(180,628,1744)"/><path d="M 659 163v 62h 31a 31 31, 0, 0, 0, 0 -62" transform="rotate(0,690,194)"/><path d="M 659 349v 62h 31a 31 31, 0, 0, 0, 0 -62" transform="rotate(0,690,380)"/><path d="M 659 535v 62h 62v -31a 31 31, 0, 0, 0, -31 -31" transform="rotate(-90,690,566)"/><rect x="659" y="597" width="62" height="62" transform="rotate(0,690,628)"/><rect x="659" y="659" width="62" height="62" transform="rotate(0,690,690)"/><path d="M 659 721v 62h 31a 31 31, 0, 0, 0, 0 -62" transform="rotate(90,690,752)"/><rect x="659" y="969" width="62" height="62" transform="rotate(0,690,1000)"/><path d="M 659 1155v 62h 31a 31 31, 0, 0, 0, 0 -62" transform="rotate(180,690,1186)"/><path d="M 659 1279v 62h 62v -31a 31 31, 0, 0, 0, -31 -31" transform="rotate(0,690,1310)"/><rect x="659" y="1341" width="62" height="62" transform="rotate(0,690,1372)"/><rect x="659" y="1403" width="62" height="62" transform="rotate(0,690,1434)"/><path d="M 659 1465v 62h 31a 31 31, 0, 0, 0, 0 -62" transform="rotate(90,690,1496)"/><rect x="659" y="1589" width="62" height="62" transform="rotate(0,690,1620)"/><rect x="659" y="1651" width="62" height="62" transform="rotate(0,690,1682)"/><rect x="659" y="1713" width="62" height="62" transform="rotate(0,690,1744)"/><rect x="659" y="1775" width="62" height="62" transform="rotate(0,690,1806)"/><path d="M 659 1837v 62h 62v -31a 31 31, 0, 0, 0, -31 -31" transform="rotate(180,690,1868)"/><path d="M 721 101v 62h 31a 31 31, 0, 0, 0, 0 -62" transform="rotate(180,752,132)"/><path d="M 721 287v 62h 31a 31 31, 0, 0, 0, 0 -62" transform="rotate(180,752,318)"/><path d="M 721 473v 62h 31a 31 31, 0, 0, 0, 0 -62" transform="rotate(-90,752,504)"/><path d="M 721 535v 62h 62v -31a 31 31, 0, 0, 0, -31 -31" transform="rotate(90,752,566)"/><path d="M 721 907v 62h 62v -31a 31 31, 0, 0, 0, -31 -31" transform="rotate(-90,752,938)"/><rect x="721" y="969" width="62" height="62" transform="rotate(0,752,1000)"/><rect x="721" y="1031" width="62" height="62" transform="rotate(0,752,1062)"/><rect x="721" y="1093" width="62" height="62" transform="rotate(0,752,1124)"/><rect x="721" y="1155" width="62" height="62" transform="rotate(0,752,1186)"/><rect x="721" y="1341" width="62" height="62" transform="rotate(0,752,1372)"/><rect x="721" y="1403" width="62" height="62" transform="rotate(0,752,1434)"/><path d="M 721 1527v 62h 31a 31 31, 0, 0, 0, 0 -62" transform="rotate(-90,752,1558)"/><rect x="721" y="1589" width="62" height="62" transform="rotate(0,752,1620)"/><rect x="721" y="1651" width="62" height="62" transform="rotate(0,752,1682)"/><path d="M 721 1713v 62h 62v -31a 31 31, 0, 0, 0, -31 -31" transform="rotate(90,752,1744)"/><rect x="721" y="1837" width="62" height="62" transform="rotate(0,752,1868)"/><path d="M 783 101v 62h 62v -31a 31 31, 0, 0, 0, -31 -31" transform="rotate(0,814,132)"/><path d="M 783 163v 62h 62v -31a 31 31, 0, 0, 0, -31 -31" transform="rotate(180,814,194)"/><path d="M 783 287v 62h 31a 31 31, 0, 0, 0, 0 -62" transform="rotate(0,814,318)"/><path d="M 783 659v 62h 31a 31 31, 0, 0, 0, 0 -62" transform="rotate(-90,814,690)"/><path d="M 783 721v 62h 31a 31 31, 0, 0, 0, 0 -62" transform="rotate(90,814,752)"/><rect x="783" y="907" width="62" height="62" transform="rotate(0,814,938)"/><rect x="783" y="1155" width="62" height="62" transform="rotate(0,814,1186)"/><path d="M 783 1217v 62h 62v -31a 31 31, 0, 0, 0, -31 -31" transform="rotate(180,814,1248)"/><path d="M 783 1341v 62h 62v -31a 31 31, 0, 0, 0, -31 -31" transform="rotate(0,814,1372)"/><path d="M 783 1403v 62h 62v -31a 31 31, 0, 0, 0, -31 -31" transform="rotate(90,814,1434)"/><path d="M 783 1589v 62h 31a 31 31, 0, 0, 0, 0 -62" transform="rotate(0,814,1620)"/><path d="M 783 1775v 62h 31a 31 31, 0, 0, 0, 0 -62" transform="rotate(-90,814,1806)"/><rect x="783" y="1837" width="62" height="62" transform="rotate(0,814,1868)"/><path d="M 845 163v 62h 31a 31 31, 0, 0, 0, 0 -62" transform="rotate(0,876,194)"/><circle cx="876" cy="380" r="31" transform="rotate(0,876,380)"/><path d="M 845 473v 62h 31a 31 31, 0, 0, 0, 0 -62" transform="rotate(-90,876,504)"/><rect x="845" y="535" width="62" height="62" transform="rotate(0,876,566)"/><path d="M 845 597v 62h 62v -31a 31 31, 0, 0, 0, -31 -31" transform="rotate(180,876,628)"/><rect x="845" y="907" width="62" height="62" transform="rotate(0,876,938)"/><path d="M 845 1031v 62h 62v -31a 31 31, 0, 0, 0, -31 -31" transform="rotate(-90,876,1062)"/><rect x="845" y="1093" width="62" height="62" transform="rotate(0,876,1124)"/><rect x="845" y="1155" width="62" height="62" transform="rotate(0,876,1186)"/><rect x="845" y="1217" width="62" height="62" transform="rotate(0,876,1248)"/><path d="M 845 1279v 62h 31a 31 31, 0, 0, 0, 0 -62" transform="rotate(90,876,1310)"/><circle cx="876" cy="1558" r="31" transform="rotate(0,876,1558)"/><rect x="845" y="1837" width="62" height="62" transform="rotate(0,876,1868)"/><circle cx="938" cy="256" r="31" transform="rotate(0,938,256)"/><path d="M 907 411v 62h 31a 31 31, 0, 0, 0, 0 -62" transform="rotate(180,938,442)"/><rect x="907" y="535" width="62" height="62" transform="rotate(0,938,566)"/><rect x="907" y="597" width="62" height="62" transform="rotate(0,938,628)"/><path d="M 907 659v 62h 31a 31 31, 0, 0, 0, 0 -62" transform="rotate(90,938,690)"/><path d="M 907 783v 62h 31a 31 31, 0, 0, 0, 0 -62" transform="rotate(180,938,814)"/><path d="M 907 907v 62h 31a 31 31, 0, 0, 0, 0 -62" transform="rotate(0,938,938)"/><path d="M 907 1031v 62h 31a 31 31, 0, 0, 0, 0 -62" transform="rotate(0,938,1062)"/><path d="M 907 1155v 62h 62v -31a 31 31, 0, 0, 0, -31 -31" transform="rotate(0,938,1186)"/><rect x="907" y="1217" width="62" height="62" transform="rotate(0,938,1248)"/><path d="M 907 1465v 62h 31a 31 31, 0, 0, 0, 0 -62" transform="rotate(180,938,1496)"/><path d="M 907 1589v 62h 31a 31 31, 0, 0, 0, 0 -62" transform="rotate(180,938,1620)"/><circle cx="938" cy="1744" r="31" transform="rotate(0,938,1744)"/><rect x="907" y="1837" width="62" height="62" transform="rotate(0,938,1868)"/><circle cx="1000" cy="194" r="31" transform="rotate(0,1000,194)"/><path d="M 969 287v 62h 31a 31 31, 0, 0, 0, 0 -62" transform="rotate(-90,1000,318)"/><rect x="969" y="349" width="62" height="62" transform="rotate(0,1000,380)"/><rect x="969" y="411" width="62" height="62" transform="rotate(0,1000,442)"/><rect x="969" y="473" width="62" height="62" transform="rotate(0,1000,504)"/><rect x="969" y="535" width="62" height="62" transform="rotate(0,1000,566)"/><rect x="969" y="783" width="62" height="62" transform="rotate(0,1000,814)"/><circle cx="1000" cy="1124" r="31" transform="rotate(0,1000,1124)"/><path d="M 969 1217v 62h 31a 31 31, 0, 0, 0, 0 -62" transform="rotate(0,1000,1248)"/><circle cx="1000" cy="1372" r="31" transform="rotate(0,1000,1372)"/><path d="M 969 1465v 62h 31a 31 31, 0, 0, 0, 0 -62" transform="rotate(0,1000,1496)"/><path d="M 969 1589v 62h 31a 31 31, 0, 0, 0, 0 -62" transform="rotate(0,1000,1620)"/><path d="M 969 1837v 62h 31a 31 31, 0, 0, 0, 0 -62" transform="rotate(0,1000,1868)"/><path d="M 1031 101v 62h 31a 31 31, 0, 0, 0, 0 -62" transform="rotate(180,1062,132)"/><path d="M 1031 411v 62h 31a 31 31, 0, 0, 0, 0 -62" transform="rotate(0,1062,442)"/><rect x="1031" y="535" width="62" height="62" transform="rotate(0,1062,566)"/><path d="M 1031 659v 62h 31a 31 31, 0, 0, 0, 0 -62" transform="rotate(-90,1062,690)"/><rect x="1031" y="721" width="62" height="62" transform="rotate(0,1062,752)"/><rect x="1031" y="783" width="62" height="62" transform="rotate(0,1062,814)"/><path d="M 1031 845v 62h 31a 31 31, 0, 0, 0, 0 -62" transform="rotate(90,1062,876)"/><path d="M 1031 1403v 62h 31a 31 31, 0, 0, 0, 0 -62" transform="rotate(180,1062,1434)"/><circle cx="1062" cy="1558" r="31" transform="rotate(0,1062,1558)"/><circle cx="1062" cy="1682" r="31" transform="rotate(0,1062,1682)"/><circle cx="1062" cy="1806" r="31" transform="rotate(0,1062,1806)"/><rect x="1093" y="101" width="62" height="62" transform="rotate(0,1124,132)"/><rect x="1093" y="163" width="62" height="62" transform="rotate(0,1124,194)"/><rect x="1093" y="225" width="62" height="62" transform="rotate(0,1124,256)"/><path d="M 1093 287v 62h 62v -31a 31 31, 0, 0, 0, -31 -31" transform="rotate(180,1124,318)"/><path d="M 1093 473v 62h 31a 31 31, 0, 0, 0, 0 -62" transform="rotate(-90,1124,504)"/><rect x="1093" y="535" width="62" height="62" transform="rotate(0,1124,566)"/><path d="M 1093 597v 62h 31a 31 31, 0, 0, 0, 0 -62" transform="rotate(90,1124,628)"/><rect x="1093" y="783" width="62" height="62" transform="rotate(0,1124,814)"/><path d="M 1093 969v 62h 31a 31 31, 0, 0, 0, 0 -62" transform="rotate(180,1124,1000)"/><circle cx="1124" cy="1124" r="31" transform="rotate(0,1124,1124)"/><path d="M 1093 1279v 62h 62v -31a 31 31, 0, 0, 0, -31 -31" transform="rotate(-90,1124,1310)"/><rect x="1093" y="1341" width="62" height="62" transform="rotate(0,1124,1372)"/><path d="M 1093 1403v 62h 62v -31a 31 31, 0, 0, 0, -31 -31" transform="rotate(90,1124,1434)"/><path d="M 1093 1837v 62h 31a 31 31, 0, 0, 0, 0 -62" transform="rotate(180,1124,1868)"/><path d="M 1155 101v 62h 31a 31 31, 0, 0, 0, 0 -62" transform="rotate(0,1186,132)"/><rect x="1155" y="287" width="62" height="62" transform="rotate(0,1186,318)"/><path d="M 1155 535v 62h 31a 31 31, 0, 0, 0, 0 -62" transform="rotate(0,1186,566)"/><rect x="1155" y="783" width="62" height="62" transform="rotate(0,1186,814)"/><path d="M 1155 845v 62h 62v -31a 31 31, 0, 0, 0, -31 -31" transform="rotate(180,1186,876)"/><rect x="1155" y="969" width="62" height="62" transform="rotate(0,1186,1000)"/><path d="M 1155 1155v 62h 31a 31 31, 0, 0, 0, 0 -62" transform="rotate(-90,1186,1186)"/><rect x="1155" y="1217" width="62" height="62" transform="rotate(0,1186,1248)"/><path d="M 1155 1279v 62h 62v -31a 31 31, 0, 0, 0, -31 -31" transform="rotate(90,1186,1310)"/><path d="M 1155 1465v 62h 31a 31 31, 0, 0, 0, 0 -62" transform="rotate(-90,1186,1496)"/><rect x="1155" y="1527" width="62" height="62" transform="rotate(0,1186,1558)"/><rect x="1155" y="1589" width="62" height="62" transform="rotate(0,1186,1620)"/><rect x="1155" y="1651" width="62" height="62" transform="rotate(0,1186,1682)"/><path d="M 1155 1713v 62h 31a 31 31, 0, 0, 0, 0 -62" transform="rotate(90,1186,1744)"/><rect x="1155" y="1837" width="62" height="62" transform="rotate(0,1186,1868)"/><rect x="1217" y="287" width="62" height="62" transform="rotate(0,1248,318)"/><rect x="1217" y="349" width="62" height="62" transform="rotate(0,1248,380)"/><rect x="1217" y="411" width="62" height="62" transform="rotate(0,1248,442)"/><path d="M 1217 473v 62h 31a 31 31, 0, 0, 0, 0 -62" transform="rotate(90,1248,504)"/><circle cx="1248" cy="690" r="31" transform="rotate(0,1248,690)"/><path d="M 1217 783v 62h 62v -31a 31 31, 0, 0, 0, -31 -31" transform="rotate(0,1248,814)"/><rect x="1217" y="845" width="62" height="62" transform="rotate(0,1248,876)"/><rect x="1217" y="907" width="62" height="62" transform="rotate(0,1248,938)"/><rect x="1217" y="969" width="62" height="62" transform="rotate(0,1248,1000)"/><path d="M 1217 1031v 62h 62v -31a 31 31, 0, 0, 0, -31 -31" transform="rotate(180,1248,1062)"/><path d="M 1217 1217v 62h 31a 31 31, 0, 0, 0, 0 -62" transform="rotate(0,1248,1248)"/><rect x="1217" y="1589" width="62" height="62" transform="rotate(0,1248,1620)"/><path d="M 1217 1837v 62h 31a 31 31, 0, 0, 0, 0 -62" transform="rotate(0,1248,1868)"/><path d="M 1279 287v 62h 62v -31a 31 31, 0, 0, 0, -31 -31" transform="rotate(0,1310,318)"/><rect x="1279" y="349" width="62" height="62" transform="rotate(0,1310,380)"/><path d="M 1279 597v 62h 31a 31 31, 0, 0, 0, 0 -62" transform="rotate(180,1310,628)"/><circle cx="1310" cy="752" r="31" transform="rotate(0,1310,752)"/><rect x="1279" y="907" width="62" height="62" transform="rotate(0,1310,938)"/><rect x="1279" y="969" width="62" height="62" transform="rotate(0,1310,1000)"/><rect x="1279" y="1031" width="62" height="62" transform="rotate(0,1310,1062)"/><rect x="1279" y="1093" width="62" height="62" transform="rotate(0,1310,1124)"/><path d="M 1279 1155v 62h 62v -31a 31 31, 0, 0, 0, -31 -31" transform="rotate(180,1310,1186)"/><path d="M 1279 1279v 62h 62v -31a 31 31, 0, 0, 0, -31 -31" transform="rotate(-90,1310,1310)"/><path d="M 1279 1341v 62h 62v -31a 31 31, 0, 0, 0, -31 -31" transform="rotate(180,1310,1372)"/><rect x="1279" y="1589" width="62" height="62" transform="rotate(0,1310,1620)"/><path d="M 1279 1651v 62h 62v -31a 31 31, 0, 0, 0, -31 -31" transform="rotate(180,1310,1682)"/><circle cx="1310" cy="1806" r="31" transform="rotate(0,1310,1806)"/><path d="M 1341 101v 62h 31a 31 31, 0, 0, 0, 0 -62" transform="rotate(-90,1372,132)"/><rect x="1341" y="163" width="62" height="62" transform="rotate(0,1372,194)"/><path d="M 1341 225v 62h 31a 31 31, 0, 0, 0, 0 -62" transform="rotate(90,1372,256)"/><path d="M 1341 349v 62h 31a 31 31, 0, 0, 0, 0 -62" transform="rotate(0,1372,380)"/><circle cx="1372" cy="504" r="31" transform="rotate(0,1372,504)"/><rect x="1341" y="597" width="62" height="62" transform="rotate(0,1372,628)"/><path d="M 1341 783v 62h 62v -31a 31 31, 0, 0, 0, -31 -31" transform="rotate(-90,1372,814)"/><rect x="1341" y="845" width="62" height="62" transform="rotate(0,1372,876)"/><rect x="1341" y="907" width="62" height="62" transform="rotate(0,1372,938)"/><path d="M 1341 1155v 62h 31a 31 31, 0, 0, 0, 0 -62" transform="rotate(0,1372,1186)"/><path d="M 1341 1279v 62h 62v -31a 31 31, 0, 0, 0, -31 -31" transform="rotate(0,1372,1310)"/><rect x="1341" y="1341" width="62" height="62" transform="rotate(0,1372,1372)"/><rect x="1341" y="1403" width="62" height="62" transform="rotate(0,1372,1434)"/><rect x="1341" y="1465" width="62" height="62" transform="rotate(0,1372,1496)"/><rect x="1341" y="1527" width="62" height="62" transform="rotate(0,1372,1558)"/><rect x="1341" y="1589" width="62" height="62" transform="rotate(0,1372,1620)"/><path d="M 1341 1651v 62h 62v -31a 31 31, 0, 0, 0, -31 -31" transform="rotate(90,1372,1682)"/><circle cx="1372" cy="1868" r="31" transform="rotate(0,1372,1868)"/><path d="M 1403 597v 62h 31a 31 31, 0, 0, 0, 0 -62" transform="rotate(0,1434,628)"/><rect x="1403" y="783" width="62" height="62" transform="rotate(0,1434,814)"/><rect x="1403" y="907" width="62" height="62" transform="rotate(0,1434,938)"/><path d="M 1403 1031v 62h 31a 31 31, 0, 0, 0, 0 -62" transform="rotate(180,1434,1062)"/><circle cx="1434" cy="1248" r="31" transform="rotate(0,1434,1248)"/><rect x="1403" y="1341" width="62" height="62" transform="rotate(0,1434,1372)"/><rect x="1403" y="1589" width="62" height="62" transform="rotate(0,1434,1620)"/><circle cx="1434" cy="1744" r="31" transform="rotate(0,1434,1744)"/><path d="M 1465 659v 62h 31a 31 31, 0, 0, 0, 0 -62" transform="rotate(180,1496,690)"/><path d="M 1465 783v 62h 62v -31a 31 31, 0, 0, 0, -31 -31" transform="rotate(0,1496,814)"/><rect x="1465" y="845" width="62" height="62" transform="rotate(0,1496,876)"/><rect x="1465" y="907" width="62" height="62" transform="rotate(0,1496,938)"/><rect x="1465" y="969" width="62" height="62" transform="rotate(0,1496,1000)"/><path d="M 1465 1031v 62h 62v -31a 31 31, 0, 0, 0, -31 -31" transform="rotate(90,1496,1062)"/><path d="M 1465 1155v 62h 31a 31 31, 0, 0, 0, 0 -62" transform="rotate(180,1496,1186)"/><path d="M 1465 1279v 62h 62v -31a 31 31, 0, 0, 0, -31 -31" transform="rotate(-90,1496,1310)"/><rect x="1465" y="1341" width="62" height="62" transform="rotate(0,1496,1372)"/><circle cx="1496" cy="1496" r="31" transform="rotate(0,1496,1496)"/><rect x="1465" y="1589" width="62" height="62" transform="rotate(0,1496,1620)"/><circle cx="1496" cy="1868" r="31" transform="rotate(0,1496,1868)"/><path d="M 1527 659v 62h 62v -31a 31 31, 0, 0, 0, -31 -31" transform="rotate(0,1558,690)"/><path d="M 1527 721v 62h 62v -31a 31 31, 0, 0, 0, -31 -31" transform="rotate(180,1558,752)"/><path d="M 1527 969v 62h 31a 31 31, 0, 0, 0, 0 -62" transform="rotate(0,1558,1000)"/><path d="M 1527 1155v 62h 62v -31a 31 31, 0, 0, 0, -31 -31" transform="rotate(0,1558,1186)"/><rect x="1527" y="1217" width="62" height="62" transform="rotate(0,1558,1248)"/><rect x="1527" y="1279" width="62" height="62" transform="rotate(0,1558,1310)"/><rect x="1527" y="1341" width="62" height="62" transform="rotate(0,1558,1372)"/><rect x="1527" y="1589" width="62" height="62" transform="rotate(0,1558,1620)"/><path d="M 1527 1651v 62h 31a 31 31, 0, 0, 0, 0 -62" transform="rotate(90,1558,1682)"/><circle cx="1620" cy="628" r="31" transform="rotate(0,1620,628)"/><rect x="1589" y="721" width="62" height="62" transform="rotate(0,1620,752)"/><rect x="1589" y="783" width="62" height="62" transform="rotate(0,1620,814)"/><rect x="1589" y="845" width="62" height="62" transform="rotate(0,1620,876)"/><path d="M 1589 907v 62h 31a 31 31, 0, 0, 0, 0 -62" transform="rotate(90,1620,938)"/><circle cx="1620" cy="1062" r="31" transform="rotate(0,1620,1062)"/><path d="M 1589 1217v 62h 62v -31a 31 31, 0, 0, 0, -31 -31" transform="rotate(0,1620,1248)"/><rect x="1589" y="1279" width="62" height="62" transform="rotate(0,1620,1310)"/><rect x="1589" y="1341" width="62" height="62" transform="rotate(0,1620,1372)"/><rect x="1589" y="1403" width="62" height="62" transform="rotate(0,1620,1434)"/><rect x="1589" y="1465" width="62" height="62" transform="rotate(0,1620,1496)"/><rect x="1589" y="1527" width="62" height="62" transform="rotate(0,1620,1558)"/><path d="M 1589 1589v 62h 62v -31a 31 31, 0, 0, 0, -31 -31" transform="rotate(90,1620,1620)"/><path d="M 1589 1775v 62h 62v -31a 31 31, 0, 0, 0, -31 -31" transform="rotate(-90,1620,1806)"/><path d="M 1589 1837v 62h 31a 31 31, 0, 0, 0, 0 -62" transform="rotate(90,1620,1868)"/><path d="M 1651 721v 62h 62v -31a 31 31, 0, 0, 0, -31 -31" transform="rotate(0,1682,752)"/><rect x="1651" y="783" width="62" height="62" transform="rotate(0,1682,814)"/><path d="M 1651 845v 62h 62v -31a 31 31, 0, 0, 0, -31 -31" transform="rotate(90,1682,876)"/><path d="M 1651 969v 62h 31a 31 31, 0, 0, 0, 0 -62" transform="rotate(180,1682,1000)"/><path d="M 1651 1093v 62h 62v -31a 31 31, 0, 0, 0, -31 -31" transform="rotate(-90,1682,1124)"/><path d="M 1651 1155v 62h 62v -31a 31 31, 0, 0, 0, -31 -31" transform="rotate(180,1682,1186)"/><path d="M 1651 1527v 62h 31a 31 31, 0, 0, 0, 0 -62" transform="rotate(0,1682,1558)"/><path d="M 1651 1651v 62h 31a 31 31, 0, 0, 0, 0 -62" transform="rotate(-90,1682,1682)"/><rect x="1651" y="1713" width="62" height="62" transform="rotate(0,1682,1744)"/><rect x="1651" y="1775" width="62" height="62" transform="rotate(0,1682,1806)"/><path d="M 1713 907v 62h 31a 31 31, 0, 0, 0, 0 -62" transform="rotate(-90,1744,938)"/><rect x="1713" y="969" width="62" height="62" transform="rotate(0,1744,1000)"/><path d="M 1713 1093v 62h 62v -31a 31 31, 0, 0, 0, -31 -31" transform="rotate(0,1744,1124)"/><rect x="1713" y="1155" width="62" height="62" transform="rotate(0,1744,1186)"/><path d="M 1713 1279v 62h 31a 31 31, 0, 0, 0, 0 -62" transform="rotate(-90,1744,1310)"/><rect x="1713" y="1341" width="62" height="62" transform="rotate(0,1744,1372)"/><path d="M 1713 1403v 62h 31a 31 31, 0, 0, 0, 0 -62" transform="rotate(90,1744,1434)"/><path d="M 1713 1713v 62h 62v -31a 31 31, 0, 0, 0, -31 -31" transform="rotate(0,1744,1744)"/><rect x="1713" y="1775" width="62" height="62" transform="rotate(0,1744,1806)"/><path d="M 1713 1837v 62h 62v -31a 31 31, 0, 0, 0, -31 -31" transform="rotate(180,1744,1868)"/><path d="M 1775 597v 62h 31a 31 31, 0, 0, 0, 0 -62" transform="rotate(-90,1806,628)"/><path d="M 1775 659v 62h 62v -31a 31 31, 0, 0, 0, -31 -31" transform="rotate(180,1806,690)"/><circle cx="1806" cy="876" r="31" transform="rotate(0,1806,876)"/><rect x="1775" y="969" width="62" height="62" transform="rotate(0,1806,1000)"/><rect x="1775" y="1155" width="62" height="62" transform="rotate(0,1806,1186)"/><path d="M 1775 1217v 62h 31a 31 31, 0, 0, 0, 0 -62" transform="rotate(90,1806,1248)"/><rect x="1775" y="1341" width="62" height="62" transform="rotate(0,1806,1372)"/><circle cx="1806" cy="1558" r="31" transform="rotate(0,1806,1558)"/><path d="M 1775 1651v 62h 31a 31 31, 0, 0, 0, 0 -62" transform="rotate(180,1806,1682)"/><rect x="1775" y="1775" width="62" height="62" transform="rotate(0,1806,1806)"/><path d="M 1775 1837v 62h 62v -31a 31 31, 0, 0, 0, -31 -31" transform="rotate(90,1806,1868)"/><path d="M 1837 659v 62h 31a 31 31, 0, 0, 0, 0 -62" transform="rotate(0,1868,690)"/><path d="M 1837 969v 62h 62v -31a 31 31, 0, 0, 0, -31 -31" transform="rotate(0,1868,1000)"/><path d="M 1837 1031v 62h 31a 31 31, 0, 0, 0, 0 -62" transform="rotate(90,1868,1062)"/><path d="M 1837 1155v 62h 31a 31 31, 0, 0, 0, 0 -62" transform="rotate(0,1868,1186)"/><path d="M 1837 1341v 62h 62v -31a 31 31, 0, 0, 0, -31 -31" transform="rotate(0,1868,1372)"/><path d="M 1837 1403v 62h 31a 31 31, 0, 0, 0, 0 -62" transform="rotate(90,1868,1434)"/><path d="M 1837 1589v 62h 31a 31 31, 0, 0, 0, 0 -62" transform="rotate(-90,1868,1620)"/><path d="M 1837 1651v 62h 62v -31a 31 31, 0, 0, 0, -31 -31" transform="rotate(90,1868,1682)"/><path d="M 1837 1775v 62h 31a 31 31, 0, 0, 0, 0 -62" transform="rotate(0,1868,1806)"/></clipPath><clipPath id="clip-path-corners-square-color-0-0"><path d="M 101 101v 62h 62v -31a 31 31, 0, 0, 0, -31 -31" transform="rotate(-90,132,132)"/><rect x="101" y="163" width="62" height="62" transform="rotate(0,132,194)"/><rect x="101" y="225" width="62" height="62" transform="rotate(0,132,256)"/><rect x="101" y="287" width="62" height="62" transform="rotate(0,132,318)"/><rect x="101" y="349" width="62" height="62" transform="rotate(0,132,380)"/><rect x="101" y="411" width="62" height="62" transform="rotate(0,132,442)"/><path d="M 101 473v 62h 62v -31a 31 31, 0, 0, 0, -31 -31" transform="rotate(180,132,504)"/><rect x="163" y="101" width="62" height="62" transform="rotate(0,194,132)"/><rect x="163" y="473" width="62" height="62" transform="rotate(0,194,504)"/><rect x="225" y="101" width="62" height="62" transform="rotate(0,256,132)"/><rect x="225" y="473" width="62" height="62" transform="rotate(0,256,504)"/><rect x="287" y="101" width="62" height="62" transform="rotate(0,318,132)"/><rect x="287" y="473" width="62" height="62" transform="rotate(0,318,504)"/><rect x="349" y="101" width="62" height="62" transform="rotate(0,380,132)"/><rect x="349" y="473" width="62" height="62" transform="rotate(0,380,504)"/><rect x="411" y="101" width="62" height="62" transform="rotate(0,442,132)"/><rect x="411" y="473" width="62" height="62" transform="rotate(0,442,504)"/><path d="M 473 101v 62h 62v -31a 31 31, 0, 0, 0, -31 -31" transform="rotate(0,504,132)"/><rect x="473" y="163" width="62" height="62" transform="rotate(0,504,194)"/><rect x="473" y="225" width="62" height="62" transform="rotate(0,504,256)"/><rect x="473" y="287" width="62" height="62" transform="rotate(0,504,318)"/><rect x="473" y="349" width="62" height="62" transform="rotate(0,504,380)"/><rect x="473" y="411" width="62" height="62" transform="rotate(0,504,442)"/><path d="M 473 473v 62h 62v -31a 31 31, 0, 0, 0, -31 -31" transform="rotate(90,504,504)"/></clipPath><clipPath id="clip-path-corners-dot-color-0-0"><path d="M 225 225v 62h 62v -31a 31 31, 0, 0, 0, -31 -31" transform="rotate(-90,256,256)"/><rect x="225" y="287" width="62" height="62" transform="rotate(0,256,318)"/><path d="M 225 349v 62h 62v -31a 31 31, 0, 0, 0, -31 -31" transform="rotate(180,256,380)"/><rect x="287" y="225" width="62" height="62" transform="rotate(0,318,256)"/><rect x="287" y="287" width="62" height="62" transform="rotate(0,318,318)"/><rect x="287" y="349" width="62" height="62" transform="rotate(0,318,380)"/><path d="M 349 225v 62h 62v -31a 31 31, 0, 0, 0, -31 -31" transform="rotate(0,380,256)"/><rect x="349" y="287" width="62" height="62" transform="rotate(0,380,318)"/><path d="M 349 349v 62h 62v -31a 31 31, 0, 0, 0, -31 -31" transform="rotate(90,380,380)"/></clipPath><clipPath id="clip-path-corners-square-color-1-0"><path d="M 1465 101v 62h 62v -31a 31 31, 0, 0, 0, -31 -31" transform="rotate(-90,1496,132)"/><rect x="1465" y="163" width="62" height="62" transform="rotate(0,1496,194)"/><rect x="1465" y="225" width="62" height="62" transform="rotate(0,1496,256)"/><rect x="1465" y="287" width="62" height="62" transform="rotate(0,1496,318)"/><rect x="1465" y="349" width="62" height="62" transform="rotate(0,1496,380)"/><rect x="1465" y="411" width="62" height="62" transform="rotate(0,1496,442)"/><path d="M 1465 473v 62h 62v -31a 31 31, 0, 0, 0, -31 -31" transform="rotate(180,1496,504)"/><rect x="1527" y="101" width="62" height="62" transform="rotate(0,1558,132)"/><rect x="1527" y="473" width="62" height="62" transform="rotate(0,1558,504)"/><rect x="1589" y="101" width="62" height="62" transform="rotate(0,1620,132)"/><rect x="1589" y="473" width="62" height="62" transform="rotate(0,1620,504)"/><rect x="1651" y="101" width="62" height="62" transform="rotate(0,1682,132)"/><rect x="1651" y="473" width="62" height="62" transform="rotate(0,1682,504)"/><rect x="1713" y="101" width="62" height="62" transform="rotate(0,1744,132)"/><rect x="1713" y="473" width="62" height="62" transform="rotate(0,1744,504)"/><rect x="1775" y="101" width="62" height="62" transform="rotate(0,1806,132)"/><rect x="1775" y="473" width="62" height="62" transform="rotate(0,1806,504)"/><path d="M 1837 101v 62h 62v -31a 31 31, 0, 0, 0, -31 -31" transform="rotate(0,1868,132)"/><rect x="1837" y="163" width="62" height="62" transform="rotate(0,1868,194)"/><rect x="1837" y="225" width="62" height="62" transform="rotate(0,1868,256)"/><rect x="1837" y="287" width="62" height="62" transform="rotate(0,1868,318)"/><rect x="1837" y="349" width="62" height="62" transform="rotate(0,1868,380)"/><rect x="1837" y="411" width="62" height="62" transform="rotate(0,1868,442)"/><path d="M 1837 473v 62h 62v -31a 31 31, 0, 0, 0, -31 -31" transform="rotate(90,1868,504)"/></clipPath><clipPath id="clip-path-corners-dot-color-1-0"><path d="M 1589 225v 62h 62v -31a 31 31, 0, 0, 0, -31 -31" transform="rotate(-90,1620,256)"/><rect x="1589" y="287" width="62" height="62" transform="rotate(0,1620,318)"/><path d="M 1589 349v 62h 62v -31a 31 31, 0, 0, 0, -31 -31" transform="rotate(180,1620,380)"/><rect x="1651" y="225" width="62" height="62" transform="rotate(0,1682,256)"/><rect x="1651" y="287" width="62" height="62" transform="rotate(0,1682,318)"/><rect x="1651" y="349" width="62" height="62" transform="rotate(0,1682,380)"/><path d="M 1713 225v 62h 62v -31a 31 31, 0, 0, 0, -31 -31" transform="rotate(0,1744,256)"/><rect x="1713" y="287" width="62" height="62" transform="rotate(0,1744,318)"/><path d="M 1713 349v 62h 62v -31a 31 31, 0, 0, 0, -31 -31" transform="rotate(90,1744,380)"/></clipPath><clipPath id="clip-path-corners-square-color-0-1"><path d="M 101 1465v 62h 62v -31a 31 31, 0, 0, 0, -31 -31" transform="rotate(-90,132,1496)"/><rect x="101" y="1527" width="62" height="62" transform="rotate(0,132,1558)"/><rect x="101" y="1589" width="62" height="62" transform="rotate(0,132,1620)"/><rect x="101" y="1651" width="62" height="62" transform="rotate(0,132,1682)"/><rect x="101" y="1713" width="62" height="62" transform="rotate(0,132,1744)"/><rect x="101" y="1775" width="62" height="62" transform="rotate(0,132,1806)"/><path d="M 101 1837v 62h 62v -31a 31 31, 0, 0, 0, -31 -31" transform="rotate(180,132,1868)"/><rect x="163" y="1465" width="62" height="62" transform="rotate(0,194,1496)"/><rect x="163" y="1837" width="62" height="62" transform="rotate(0,194,1868)"/><rect x="225" y="1465" width="62" height="62" transform="rotate(0,256,1496)"/><rect x="225" y="1837" width="62" height="62" transform="rotate(0,256,1868)"/><rect x="287" y="1465" width="62" height="62" transform="rotate(0,318,1496)"/><rect x="287" y="1837" width="62" height="62" transform="rotate(0,318,1868)"/><rect x="349" y="1465" width="62" height="62" transform="rotate(0,380,1496)"/><rect x="349" y="1837" width="62" height="62" transform="rotate(0,380,1868)"/><rect x="411" y="1465" width="62" height="62" transform="rotate(0,442,1496)"/><rect x="411" y="1837" width="62" height="62" transform="rotate(0,442,1868)"/><path d="M 473 1465v 62h 62v -31a 31 31, 0, 0, 0, -31 -31" transform="rotate(0,504,1496)"/><rect x="473" y="1527" width="62" height="62" transform="rotate(0,504,1558)"/><rect x="473" y="1589" width="62" height="62" transform="rotate(0,504,1620)"/><rect x="473" y="1651" width="62" height="62" transform="rotate(0,504,1682)"/><rect x="473" y="1713" width="62" height="62" transform="rotate(0,504,1744)"/><rect x="473" y="1775" width="62" height="62" transform="rotate(0,504,1806)"/><path d="M 473 1837v 62h 62v -31a 31 31, 0, 0, 0, -31 -31" transform="rotate(90,504,1868)"/></clipPath><clipPath id="clip-path-corners-dot-color-0-1"><path d="M 225 1589v 62h 62v -31a 31 31, 0, 0, 0, -31 -31" transform="rotate(-90,256,1620)"/><rect x="225" y="1651" width="62" height="62" transform="rotate(0,256,1682)"/><path d="M 225 1713v 62h 62v -31a 31 31, 0, 0, 0, -31 -31" transform="rotate(180,256,1744)"/><rect x="287" y="1589" width="62" height="62" transform="rotate(0,318,1620)"/><rect x="287" y="1651" width="62" height="62" transform="rotate(0,318,1682)"/><rect x="287" y="1713" width="62" height="62" transform="rotate(0,318,1744)"/><path d="M 349 1589v 62h 62v -31a 31 31, 0, 0, 0, -31 -31" transform="rotate(0,380,1620)"/><rect x="349" y="1651" width="62" height="62" transform="rotate(0,380,1682)"/><path d="M 349 1713v 62h 62v -31a 31 31, 0, 0, 0, -31 -31" transform="rotate(90,380,1744)"/></clipPath></defs><rect x="0" y="0" height="2000" width="2000" clip-path="url('#clip-path-background-color')" fill="none"/><rect x="101" y="101" height="1798" width="1798" clip-path="url('#clip-path-dot-color')" fill="#351E44"/><rect x="101" y="101" height="434" width="434" clip-path="url('#clip-path-corners-square-color-0-0')" fill="#351E44"/><rect x="225" y="225" height="186" width="186" clip-path="url('#clip-path-corners-dot-color-0-0')" fill="#351E44"/><rect x="1465" y="101" height="434" width="434" clip-path="url('#clip-path-corners-square-color-1-0')" fill="#351E44"/><rect x="1589" y="225" height="186" width="186" clip-path="url('#clip-path-corners-dot-color-1-0')" fill="#351E44"/><rect x="101" y="1465" height="434" width="434" clip-path="url('#clip-path-corners-square-color-0-1')" fill="#351E44"/><rect x="225" y="1589" height="186" width="186" clip-path="url('#clip-path-corners-dot-color-0-1')" fill="#351E44"/></svg>